<svg width="45" height="34" viewBox="0 0 45 34" fill="none" xmlns="http://www.w3.org/2000/svg">
<path fill-rule="evenodd" clip-rule="evenodd" d="M3.27346 0.0852557C1.94466 0.325101 1.07089 1.20293 0.546206 2.28309C-0.153942 3.72442 0.018878 5.26549 0.018878 7.08395L0.0174964 29.1344C0.0210656 30.8673 0.57096 32.1001 1.37323 32.9139C2.43203 33.988 3.43315 33.9506 5.06648 33.9506C5.98539 33.9506 40.0952 34.0851 41.0892 33.9103C42.3882 33.6826 43.2634 32.7326 43.7619 31.7143C44.4373 30.3325 44.2893 28.7076 44.2893 26.9157L44.2907 4.8651C44.2848 3.13059 43.6837 1.76262 42.9358 1.08329C41.6907 -0.0465219 41.0559 0.0494194 39.2417 0.0494194C38.3786 0.0494194 4.2071 -0.0827773 3.27346 0.0852557Z" fill="#353333"/>
<path fill-rule="evenodd" clip-rule="evenodd" d="M3.14844 2.27192C3.9377 2.99315 4.70083 3.90893 5.49366 4.76405L12.6431 12.4596C13.4621 13.2779 14.2418 14.1601 15.0405 15.0097C15.4702 15.4668 15.7928 15.8737 16.2194 16.3049C16.6217 16.7123 17.036 17.1292 17.4159 17.583C17.7349 17.9661 18.2406 18.4663 18.6181 18.855C19.0398 19.2884 19.3741 19.73 19.7979 20.1485C20.3955 20.7391 21.7814 22.3512 22.1684 22.6462L25.7613 18.8357C27.3874 16.9571 30.1471 14.3404 31.7472 12.459L36.5334 7.35495C37.3141 6.49927 38.1677 5.67717 38.9452 4.82317C39.3952 4.32966 41.0799 2.61433 41.2976 2.23171C40.6951 1.79999 33.2558 2.03095 31.9236 2.03095L4.20229 2.02982C3.77708 2.02826 3.41394 1.95095 3.14844 2.27192Z" fill="#FEFEFE"/>
<path fill-rule="evenodd" clip-rule="evenodd" d="M2.77441 31.638C3.14918 31.9783 3.5897 31.9689 4.11841 31.9689C16.1998 31.9689 28.28 31.9689 40.3601 31.9689C40.8304 31.9689 41.2339 31.8322 41.5723 31.6579C41.3172 31.2675 34.9575 26.2744 34.4314 25.8487L27.1893 20.0416C26.9144 20.1838 26.118 21.0556 25.8944 21.3197C25.4727 21.8159 22.3761 25.1313 22.1106 25.2443L17.3176 20.0504C16.9225 20.1529 14.1818 22.4368 13.6486 22.8773L4.55259 30.1902C4.02434 30.6064 3.2482 31.1468 2.77441 31.638Z" fill="#FEFEFE"/>
<path fill-rule="evenodd" clip-rule="evenodd" d="M1.71678 30.052L15.9437 18.7262C15.8101 18.4142 11.1836 13.4458 10.6827 12.9677L8.47797 10.6035C7.50644 9.6104 2.27162 3.75041 1.82881 3.5282C1.44413 4.76834 1.6394 20.0148 1.6394 23.4344C1.6394 24.7931 1.50481 29.043 1.71678 30.052Z" fill="#FEFEFE"/>
<path fill-rule="evenodd" clip-rule="evenodd" d="M28.4414 18.7171C28.8513 18.909 31.3751 21.0263 32.0146 21.5285C33.13 22.4058 42.2408 29.9402 42.6278 29.9171L42.5626 3.67896C42.2422 3.85489 40.2278 6.04553 39.842 6.45185L31.9677 14.8409C31.4665 15.3841 28.5822 18.4144 28.4414 18.7171Z" fill="#FEFEFE"/>
</svg>
