<svg width="25" height="25" viewBox="0 0 25 25" fill="none" xmlns="http://www.w3.org/2000/svg">
<path d="M4.79521 0.0176116C4.74252 0.0253549 4.60971 0.0429457 4.50223 0.0546447C3.84414 0.132834 3.16846 0.357389 2.59234 0.685466C1.19208 1.48613 0.244882 2.90786 0.0593808 4.48975C0.0476818 4.59125 0.0300942 4.73383 0.020331 4.80612C-0.0089586 4.99945 -0.00509126 19.9919 0.0222625 20.2088C0.110131 20.8864 0.166782 21.1656 0.303551 21.5562C0.817129 23.0306 1.98299 24.1907 3.46135 24.7004C3.85584 24.8352 4.19368 24.9035 4.81473 24.9758C5.09787 25.009 20.1099 24.9933 20.3599 24.9601C20.6919 24.9152 20.9848 24.8586 21.2309 24.7922C22.4124 24.468 23.4358 23.7318 24.1134 22.7162C24.3731 22.3276 24.5469 21.9819 24.6954 21.5562C24.8321 21.1656 24.8887 20.8864 24.9766 20.2088C25.0078 19.9724 25.0078 5.02091 24.9766 4.78466C24.8926 4.12842 24.834 3.84133 24.709 3.47227C24.3067 2.29471 23.4904 1.30459 22.4065 0.685466C21.8324 0.357389 21.1508 0.132834 20.5064 0.0566646C20.4048 0.0448814 20.2622 0.0273748 20.19 0.0176116C20.0338 -0.00587054 4.94359 -0.00587054 4.79521 0.0176116ZM20.524 1.98607C21.8227 2.29269 22.7326 3.20866 23.0119 4.49362L23.0549 4.69477V12.4967V20.2986L23.0119 20.4997C22.7307 21.7906 21.7934 22.728 20.5024 23.0092L20.3013 23.0521H12.4995H4.69757L4.49642 23.0092C3.20558 22.728 2.26814 21.7906 1.98694 20.4997L1.94393 20.2986V12.4967V4.69477L1.99082 4.48192C2.23296 3.35511 3.02782 2.45286 4.09217 2.09549C4.2797 2.03295 4.58824 1.96268 4.74639 1.94509C4.78351 1.94121 8.30853 1.93928 12.5776 1.93928L20.3404 1.94315L20.524 1.98607Z" fill="#797777"/>
<path d="M19.3911 4.03846C19.0865 4.08728 18.8404 4.2142 18.608 4.4486C18.4674 4.59117 18.4244 4.64975 18.3502 4.80209C18.235 5.04028 18.192 5.24926 18.2077 5.50319C18.2272 5.86249 18.358 6.14765 18.6217 6.41125C19.0533 6.84479 19.7016 6.94049 20.2582 6.65146C20.4515 6.54996 20.6937 6.31951 20.805 6.12812C21.0394 5.72185 21.055 5.23167 20.8441 4.80007C20.7679 4.64193 20.7289 4.58924 20.5765 4.43884C20.434 4.29626 20.3676 4.24551 20.2328 4.18104C20.1411 4.13609 20.0141 4.08534 19.9477 4.06968C19.7973 4.03063 19.5317 4.017 19.3911 4.03846Z" fill="#797777"/>
<path d="M11.7666 5.33772C9.2864 5.59552 7.12259 7.10705 6.03484 9.34123C5.64422 10.1438 5.41185 10.9777 5.32987 11.8741C5.30058 12.2042 5.31808 13.1123 5.35915 13.4131C5.63059 15.3405 6.58553 17.0084 8.08342 18.1742C9.15358 19.0062 10.4055 19.5061 11.7861 19.6526C12.3212 19.7092 13.0966 19.6858 13.6649 19.594C15.028 19.3753 16.356 18.7269 17.3715 17.7817C18.2737 16.9439 18.9084 15.9714 19.3029 14.823C19.5665 14.0536 19.6856 13.331 19.6856 12.4952C19.6856 11.0363 19.2794 9.69472 18.4729 8.49174C17.2777 6.70676 15.3541 5.5526 13.2196 5.33772C12.8642 5.30263 12.1064 5.30263 11.7666 5.33772ZM13.1668 7.25156C13.7781 7.33169 14.2703 7.48201 14.8327 7.75933C15.401 8.0386 15.856 8.37063 16.2974 8.82563C16.6997 9.24166 16.9848 9.64784 17.2445 10.1809C18.1292 11.9874 17.9144 14.1024 16.684 15.7233C16.4888 15.9792 15.9829 16.4849 15.7271 16.6803C14.9869 17.2427 14.155 17.5903 13.2216 17.7309C12.8524 17.7856 12.2021 17.7914 11.8349 17.7407C10.6398 17.5786 9.5442 17.0318 8.72982 16.194C8.44862 15.905 8.29821 15.7214 8.09318 15.4128C7.64399 14.7391 7.34714 13.9305 7.2437 13.0908C7.21248 12.8389 7.21248 12.1514 7.2437 11.8995C7.39604 10.6673 7.93891 9.56384 8.80994 8.71436C9.20636 8.32964 9.61447 8.03472 10.0774 7.79839C10.7628 7.45078 11.4112 7.27311 12.2158 7.21453C12.3896 7.20081 12.9521 7.22429 13.1668 7.25156Z" fill="#797777"/>
</svg>
