<svg width="37" height="37" viewBox="0 0 37 37" fill="none" xmlns="http://www.w3.org/2000/svg">
<path fill-rule="evenodd" clip-rule="evenodd" d="M8.39107 1.08603C5.50371 1.55821 3.56774 1.86343 2.22181 4.7858C-4.5 20.5 16.9997 39.5 28.9998 35.5C31.5577 35.213 33.9473 33.1513 35.0057 31.7358C35.503 31.0708 35.9992 29.0134 35.9996 27.9811C36.0001 26.7479 28.8478 22.7395 27.9183 22.6837C26.3684 22.5909 25.0326 25.3958 24 26.5C21.4923 28.8825 11.5297 17.8097 10.4398 14.4694C9.83021 12.6012 14.0016 11.2458 14.3806 9.40698C14.5214 8.72407 10.8018 2.46839 10.2285 1.59702C9.80507 0.953254 9.42405 0.917053 8.39107 1.08603Z" fill="white" stroke="#353333" stroke-width="1.5" stroke-miterlimit="22.9256"/>
</svg>
