<svg width="25" height="25" viewBox="0 0 25 25" fill="none" xmlns="http://www.w3.org/2000/svg">
<path d="M19.9939 0H5.00608C2.2413 0 0 2.19802 0 4.90941V20.0831C0 22.7945 2.2413 24.9925 5.00608 24.9925H19.9939C22.7587 24.9925 25 22.7945 25 20.0831V4.90941C25 2.19802 22.7587 0 19.9939 0Z" fill="#797777"/>
<path fill-rule="evenodd" clip-rule="evenodd" d="M8.73512 14.785L8.29282 16.4172C4.06034 14.7742 5.20951 6.8112 11.3293 5.82765C11.3293 5.82765 15.5782 4.85983 18.1571 8.23607C21.648 12.6402 17.2452 20.1368 12.6096 18.2447C12.6096 18.2447 11.8742 17.8245 11.391 17.1733C11.391 17.1733 10.9014 21.3447 9.10565 22.6564C9.10565 22.6564 8.46283 21.514 9.08742 18.266L10.1181 13.7688C10.1181 13.7688 9.09373 11.2616 10.9111 10.0706C10.9111 10.0706 12.0508 9.3519 12.8414 10.3992C12.8414 10.3992 13.3856 10.9536 12.8414 12.4937L12.2387 14.4385C12.2387 14.4385 11.7679 15.4979 12.4527 16.2148C12.4527 16.2148 13.3703 17.3192 14.9968 16.431C14.9968 16.431 16.6551 15.6197 17.0193 12.675C17.0193 12.675 17.6686 9.21253 14.3131 7.92193C10.3526 6.48678 5.95695 10.7566 8.73512 14.785Z" fill="#FEFEFE"/>
</svg>
