<svg width="80" height="37" viewBox="0 0 80 37" fill="none" xmlns="http://www.w3.org/2000/svg">
<path fill-rule="evenodd" clip-rule="evenodd" d="M39.0992 6.46249C33.078 7.55296 41.0085 17.9895 41.0085 23.9949C41.0085 41.3505 0 40.45 0 26.5891C0 16.4867 16.3625 18.3581 23.5984 18.3581L25.4428 22.3917C21.3181 22.3917 10.3425 21.1933 10.3425 27.1838C10.3425 34.3222 30.5624 35.9923 30.5624 24.9602C30.5624 19.7587 26.4253 14.5103 26.4253 9.21352C26.4253 3.28651 31.2847 0.222225 41.0095 0.0120177L67.02 0C72.9125 0 80 0.959568 80 8.42913C80 13.4194 76.4921 17.6944 69.4764 21.2626C64.7964 23.6673 59.2199 25.4945 52.7558 26.7357L50.0495 35.5269H40.9566L49.0238 9.61854H58.0651L54.2556 21.7712C64.8813 18.6748 79.4493 6.36061 62.883 6.36061L39.0992 6.46249Z" fill="#40662F"/>
</svg>
